{
    "asset" : {
        "generator" : "Khronos glTF Blender I/O v1.7.33",
        "version" : "2.0"
    },
    "scene" : 0,
    "scenes" : [
        {
            "name" : "Scene",
            "nodes" : [
                0
            ]
        }
    ],
    "nodes" : [
        {
            "mesh" : 0,
            "name" : "Animated Shirt.001",
            "rotation" : [
                0,
                -0.26549679040908813,
                0,
                -0.9641117453575134
            ],
            "scale" : [
                0.3348994255065918,
                0.3348994255065918,
                0.3348994255065918
            ]
        }
    ],
    "materials" : [
        {
            "doubleSided" : true,
            "name" : "Shirt Texture.001",
            "pbrMetallicRoughness" : {
                "baseColorTexture" : {
                    "index" : 0
                }
            }
        }
    ],
    "meshes" : [
        {
            "name" : "Shirt.001",
            "primitives" : [
                {
                    "attributes" : {
                        "POSITION" : 0,
                        "NORMAL" : 1,
                        "TEXCOORD_0" : 2
                    },
                    "indices" : 3,
                    "material" : 0
                }
            ]
        }
    ],
    "textures" : [
        {
            "sampler" : 0,
            "source" : 0
        }
    ],
    "images" : [
        {
            "mimeType" : "image/png",
            "name" : "12412412412",
            "uri" : "12412412412.png"
        }
    ],
    "accessors" : [
        {
            "bufferView" : 0,
            "componentType" : 5126,
            "count" : 617038,
            "max" : [
                0.33299267292022705,
                0.34621667861938477,
                0.23039111495018005
            ],
            "min" : [
                -0.34940198063850403,
                -0.3865998387336731,
                -0.14541122317314148
            ],
            "type" : "VEC3"
        },
        {
            "bufferView" : 1,
            "componentType" : 5126,
            "count" : 617038,
            "type" : "VEC3"
        },
        {
            "bufferView" : 2,
            "componentType" : 5126,
            "count" : 617038,
            "type" : "VEC2"
        },
        {
            "bufferView" : 3,
            "componentType" : 5125,
            "count" : 3234636,
            "type" : "SCALAR"
        }
    ],
    "bufferViews" : [
        {
            "buffer" : 0,
            "byteLength" : 7404456,
            "byteOffset" : 0
        },
        {
            "buffer" : 0,
            "byteLength" : 7404456,
            "byteOffset" : 7404456
        },
        {
            "buffer" : 0,
            "byteLength" : 4936304,
            "byteOffset" : 14808912
        },
        {
            "buffer" : 0,
            "byteLength" : 12938544,
            "byteOffset" : 19745216
        }
    ],
    "samplers" : [
        {
            "magFilter" : 9729,
            "minFilter" : 9987
        }
    ],
    "buffers" : [
        {
            "byteLength" : 32683760,
            "uri" : "WholeFile.bin"
        }
    ]
}
